<svg width="64" height="63" viewBox="0 0 64 63" fill="none" xmlns="http://www.w3.org/2000/svg">
<g clip-path="url(#clip0_1_496)">
<path d="M51.8391 41.4291C50.2997 41.4291 48.8372 42.032 47.734 43.1224C46.6308 44.2257 46.015 45.6624 46.015 47.2018C46.015 48.7412 46.6179 50.178 47.734 51.2812C48.8501 52.3717 50.2997 52.9746 51.8391 52.9746C54.9949 52.9746 57.5605 50.3833 57.5605 47.2018C57.5605 44.0204 54.9949 41.4291 51.8391 41.4291ZM51.8391 50.4089C50.0688 50.4089 48.5807 48.9465 48.5807 47.2018C48.5807 45.4572 50.0688 43.9947 51.8391 43.9947C53.5837 43.9947 54.9949 45.4315 54.9949 47.2018C54.9949 48.9721 53.5837 50.4089 51.8391 50.4089Z" fill="#E90ADE"/>
<path d="M53.3272 22.1994C53.0962 21.9813 52.7884 21.8658 52.4677 21.8658H45.8867C45.1812 21.8658 44.6039 22.4431 44.6039 23.1487V33.6679C44.6039 34.3735 45.1812 34.9508 45.8867 34.9508H56.329C57.0345 34.9508 57.6118 34.3735 57.6118 33.6679V26.6252C57.6118 26.266 57.4579 25.9196 57.1885 25.6759L53.3272 22.1994ZM55.0462 32.3851H47.1696V24.4187H51.9674L55.0462 27.1896V32.3851Z" fill="#E90ADE"/>
<path d="M20.5122 41.4291C18.9728 41.4291 17.5103 42.032 16.4071 43.1224C15.3039 44.2257 14.6881 45.6624 14.6881 47.2018C14.6881 48.7412 15.291 50.178 16.4071 51.2812C17.5232 52.3717 18.9728 52.9746 20.5122 52.9746C23.668 52.9746 26.2336 50.3833 26.2336 47.2018C26.2336 44.0204 23.668 41.4291 20.5122 41.4291ZM20.5122 50.4089C18.7419 50.4089 17.2538 48.9465 17.2538 47.2018C17.2538 45.4572 18.7419 43.9947 20.5122 43.9947C22.2568 43.9947 23.6679 45.4315 23.6679 47.2018C23.6679 48.9721 22.2568 50.4089 20.5122 50.4089Z" fill="#E90ADE"/>
<path d="M11.9557 43.0069H9.37719V39.5946C9.37719 38.889 8.79992 38.3118 8.09436 38.3118C7.3888 38.3118 6.81152 38.889 6.81152 39.5946V44.2898C6.81152 44.9953 7.3888 45.5726 8.09436 45.5726H11.9557C12.6612 45.5726 13.2385 44.9953 13.2385 44.2898C13.2385 43.5842 12.6612 43.0069 11.9557 43.0069Z" fill="#E90ADE"/>
<path d="M18.4597 36.0155C18.4597 35.3099 17.8824 34.7327 17.1769 34.7327H1.61609C0.910527 34.7327 0.333252 35.3099 0.333252 36.0155C0.333252 36.7211 0.910527 37.2983 1.61609 37.2983H17.1769C17.8824 37.2983 18.4597 36.7339 18.4597 36.0155Z" fill="#E90ADE"/>
<path d="M4.22029 31.3845L19.7811 31.4743C20.4866 31.4743 21.0639 30.9099 21.0767 30.2043C21.0896 29.4859 20.5123 28.9086 19.8067 28.9086L4.24595 28.8188C4.23312 28.8188 4.23312 28.8188 4.23312 28.8188C3.52756 28.8188 2.95028 29.3833 2.95028 30.0888C2.93745 30.8072 3.51473 31.3845 4.22029 31.3845Z" fill="#E90ADE"/>
<path d="M6.83728 25.5604H22.3981C23.1036 25.5604 23.6809 24.9831 23.6809 24.2776C23.6809 23.572 23.1036 22.9948 22.3981 22.9948H6.83728C6.13172 22.9948 5.55444 23.572 5.55444 24.2776C5.55444 24.9831 6.13172 25.5604 6.83728 25.5604Z" fill="#E90ADE"/>
<path d="M62.8586 23.8286L53.6735 16.2214C53.4426 16.029 53.1603 15.9264 52.8525 15.9264H42.051V11.3082C42.051 10.6026 41.4737 10.0253 40.7682 10.0253H8.09436C7.3888 10.0253 6.81152 10.6026 6.81152 11.3082V20.6985C6.81152 21.4041 7.3888 21.9813 8.09436 21.9813C8.79992 21.9813 9.37719 21.4041 9.37719 20.6985V12.591H39.4981V43.007H28.9789C28.2733 43.007 27.6961 43.5843 27.6961 44.2898C27.6961 44.9954 28.2733 45.5727 28.9789 45.5727H44.6423C45.3479 45.5727 45.9251 44.9954 45.9251 44.2898C45.9251 43.5843 45.3479 43.007 44.6423 43.007H42.0638V18.492H52.4035L60.7675 25.4193L60.6777 42.9813H59.3436C58.638 42.9813 58.0608 43.5586 58.0608 44.2642C58.0608 44.9697 58.638 45.547 59.3436 45.547H61.9478C62.6533 45.547 63.2306 44.9826 63.2306 44.277L63.3332 24.8292C63.3204 24.4444 63.1536 24.0724 62.8586 23.8286Z" fill="#E90ADE"/>
</g>
<defs>
<clipPath id="clip0_1_496">
<rect width="63" height="63" fill="white" transform="translate(0.333252)"/>
</clipPath>
</defs>
</svg>
