<svg width="66" height="60" viewBox="0 0 66 60" fill="none" xmlns="http://www.w3.org/2000/svg">
<path d="M54.3219 0.284996C53.8247 0.419998 53.0863 0.704998 52.6644 0.899998C51.8055 1.32 49.7411 3.3 49.4548 3.975C49.289 4.38 48.9123 4.575 45.8384 5.88C43.9548 6.69 40.4589 8.19 38.048 9.225L33.6781 11.1H31.026C28.5247 11.1 28.3589 11.115 28.0877 11.415C27.8315 11.7 27.8014 12.03 27.7562 15L27.711 18.27L27.1986 18.36C26.2041 18.555 26.2192 18.435 26.2192 25.305V31.5H13.4863H0.738356L0.376712 31.875L0 32.235V36.825V41.415L0.376712 41.775L0.738356 42.15H9.64384H18.5342L18.5041 44.58L18.4589 47.025L11.6027 47.1L4.74658 47.175L3.75206 47.655C3.20959 47.925 2.42603 48.465 2.01918 48.87C-1.61233 52.425 -0.090411 58.335 4.80685 59.76C5.54521 59.97 7.9863 60 28.0425 60H50.4493L51.5192 59.64C53.8548 58.86 55.3315 57.165 55.8438 54.72C56.4466 51.84 54.9548 48.96 52.1521 47.64L51.1575 47.175L44.3767 47.1L37.5959 47.025L37.5507 44.595L37.5206 42.15H44.2712C50.8863 42.15 51.0521 42.15 51.4438 41.835L51.8356 41.535V35.94V30.345L48.5055 24.96C46.6671 21.99 45.0397 19.365 44.874 19.11C44.4671 18.42 44.0452 18.3 41.9959 18.3H40.1575L39.5849 17.205C39.2836 16.62 39.0274 16.05 39.0274 15.96C39.0274 15.87 40.9712 14.97 43.3671 13.95C45.748 12.93 48.0384 11.94 48.4603 11.76L49.2438 11.415L49.6959 12.135C50.826 13.875 52.9206 15.24 55.0151 15.615L56.0548 15.795V26.31V36.84L55.226 37.425C51.0521 40.44 51.6247 46.8 56.2808 49.065C57.3055 49.56 57.3959 49.575 59.1589 49.575C60.937 49.575 60.9822 49.56 62.0973 49.02C66.1658 47.025 67.2507 42.09 64.3877 38.595C64.1164 38.25 63.574 37.74 63.2123 37.485L62.5343 37.005V24.915L62.5493 12.825L63.0767 12C64.5082 9.75 64.6137 6.66 63.3329 4.125C62.8055 3.12 61.0123 1.365 59.9726 0.869999C58.1343 -3.8147e-06 56.0699 -0.225002 54.3219 0.284996ZM57.8781 2.49C59.4603 2.955 60.6507 3.93 61.4343 5.445C61.811 6.15 61.8562 6.375 61.8562 7.8C61.8562 9.285 61.826 9.435 61.3589 10.38C59.3548 14.445 53.5384 14.505 51.3836 10.47C50.9466 9.66 50.8562 9.345 50.811 8.25C50.7356 6.75 50.9014 6.075 51.5644 4.95C52.8452 2.835 55.4973 1.8 57.8781 2.49ZM48.4753 8.31L48.5356 9.255L43.2466 11.535C40.3384 12.78 37.9123 13.8 37.8521 13.8C37.6712 13.8 36.8877 12.27 37.0233 12.15C37.0836 12.09 39.4795 11.055 42.3425 9.825C45.2055 8.61 47.7069 7.53 47.9178 7.425C48.1288 7.32 48.3247 7.26 48.3699 7.29C48.4 7.335 48.4603 7.785 48.4753 8.31ZM36.2247 15.75C36.9329 17.055 37.5206 18.18 37.5206 18.225C37.5206 18.27 35.8479 18.285 33.7986 18.27L30.0616 18.225V15.9C30.0616 14.625 30.0767 13.53 30.1069 13.455C30.137 13.395 31.2219 13.35 32.5329 13.35H34.9288L36.2247 15.75ZM60.274 25.5V36.15H59.2945H58.3151V25.83V15.525L59.1137 15.21C59.5356 15.03 59.9877 14.88 60.0932 14.865C60.2288 14.85 60.274 17.07 60.274 25.5ZM44.874 23.4C45.8233 24.93 47.2699 27.255 48.0836 28.575L49.5753 30.975V35.43V39.9H39.0274H28.4795V30.33C28.4795 25.065 28.5247 20.7 28.5849 20.655C28.6301 20.595 31.9452 20.565 35.9233 20.58L43.1562 20.625L44.874 23.4ZM26.2192 36.825V39.9H14.2397H2.26027V36.825V33.75H14.2397H26.2192V36.825ZM61.1027 38.865C62.037 39.3 62.926 40.185 63.3329 41.085C63.8301 42.135 63.7849 43.905 63.2425 44.94C61.4945 48.33 56.6425 48.21 55.0452 44.745C54.7288 44.055 54.6685 43.755 54.7288 42.78C54.8192 40.845 55.7534 39.495 57.5014 38.76C58.6164 38.295 59.9726 38.325 61.1027 38.865ZM35.2301 44.58L35.1849 47.025L27.9973 47.055L20.7945 47.085V44.625V42.15H28.0274H35.2603L35.2301 44.58ZM51.3534 49.74C54.0507 51.075 54.5027 54.615 52.2575 56.625C50.9014 57.84 52.7096 57.765 27.6356 57.72L5.34932 57.675L4.73151 57.345C2.75753 56.295 1.88356 54.345 2.47123 52.32C2.7726 51.27 3.72192 50.175 4.74658 49.71L5.5 49.35H28.0425H50.5699L51.3534 49.74Z" fill="#E90ADE"/>
<path d="M54.774 4.41001C53.7795 4.86001 52.9658 5.77501 52.6795 6.76501C52.3781 7.75501 52.3781 7.99501 52.6795 8.98501C52.9658 9.97501 53.7343 10.83 54.789 11.34C55.4973 11.685 55.7534 11.73 56.5521 11.67C58.6616 11.49 60.1534 9.97501 60.1685 7.95001C60.1836 6.87001 59.9123 6.09001 59.2343 5.35501C58.511 4.54501 57.411 4.05001 56.3562 4.05001C55.7986 4.05001 55.2712 4.17001 54.774 4.41001ZM57.411 6.67501C57.8932 7.11001 58.0589 7.84501 57.8178 8.43001C57.5466 9.09001 57.2452 9.31501 56.5219 9.40501C55.7534 9.51001 55.211 9.18001 54.9096 8.44501C54.6233 7.78501 54.8343 7.05001 55.4219 6.58501C55.9041 6.21001 56.9438 6.25501 57.411 6.67501Z" fill="#E90ADE"/>
<path d="M30.9658 23.025L30.5891 23.385V30.225V37.065L30.9658 37.425L31.3274 37.8H38.9973C46.5315 37.8 46.6822 37.8 47.074 37.485L47.4658 37.185V34.365V31.56L45.5671 28.485C44.5123 26.805 43.3219 24.87 42.9 24.195C42.4781 23.52 41.9808 22.905 41.7849 22.815C41.5438 22.71 39.6754 22.65 36.3754 22.65H31.3274L30.9658 23.025ZM42.9603 28.575L45.1904 32.175L45.2055 33.855V35.55H39.0274H32.8493V30.225V24.9L36.7973 24.93L40.7301 24.975L42.9603 28.575Z" fill="#E90ADE"/>
<path d="M5.53016 50.01C3.51098 50.73 2.56167 53.19 3.55619 55.17C4.73153 57.51 7.8055 57.975 9.58358 56.07C10.5781 55.02 10.8945 53.82 10.4877 52.485C9.88495 50.4 7.60961 49.275 5.53016 50.01ZM7.59454 52.215C7.8055 52.32 8.07674 52.62 8.21235 52.905C8.78495 54.105 7.70002 55.32 6.4192 54.9C5.36441 54.555 5.07811 53.28 5.86167 52.485C6.34386 52.02 6.93153 51.915 7.59454 52.215Z" fill="#E90ADE"/>
<path d="M16.063 50.025C15.3397 50.28 14.4055 51.165 14.0137 51.975C13.3356 53.355 13.8178 55.395 15.0384 56.4C17.3438 58.29 20.8397 56.85 21.2014 53.865C21.5178 51.195 18.7 49.08 16.063 50.025ZM18.3233 52.32C19.0767 52.92 19.1521 53.955 18.489 54.57C17.9918 55.02 17.4342 55.11 16.8315 54.825C15.4151 54.165 15.8671 52.05 17.4342 52.05C17.7507 52.05 18.1575 52.17 18.3233 52.32Z" fill="#E90ADE"/>
<path d="M26.7315 49.965C25.963 50.19 24.7726 51.345 24.5014 52.155C23.763 54.315 24.8329 56.475 26.9425 57.09C30.4986 58.125 33.226 53.94 30.8603 51.09C29.9712 50.01 28.2233 49.53 26.7315 49.965ZM28.8712 52.32C29.6247 52.92 29.7 53.955 29.037 54.57C28.5397 55.02 27.9822 55.11 27.3795 54.825C25.963 54.165 26.4151 52.05 27.9822 52.05C28.2986 52.05 28.7055 52.17 28.8712 52.32Z" fill="#E90ADE"/>
<path d="M37.2343 50.01C36.4356 50.295 35.5616 51.12 35.1699 51.96C34.311 53.805 35.0343 55.935 36.8575 56.85C39.0274 57.945 41.6644 56.7 42.2069 54.33C42.6288 52.5 41.5589 50.55 39.7959 49.965C39.148 49.755 37.8973 49.77 37.2343 50.01ZM39.4192 52.32C40.1726 52.92 40.248 53.955 39.5849 54.57C39.0877 55.035 38.5301 55.11 37.9274 54.825C36.511 54.165 37.0082 52.05 38.5603 52.05C38.8616 52.05 39.2534 52.17 39.4192 52.32Z" fill="#E90ADE"/>
<path d="M47.7822 50.01C46.9685 50.295 46.0945 51.135 45.6877 52.02C44.7233 54.135 45.9438 56.535 48.2945 57.165C50.0726 57.645 52.1069 56.445 52.7397 54.54C53.1164 53.37 52.6795 51.705 51.7301 50.82C50.7658 49.905 49.048 49.545 47.7822 50.01ZM49.8918 52.2C50.2534 52.395 50.6301 53.115 50.6301 53.61C50.6301 53.82 50.4343 54.21 50.1932 54.48C49.8315 54.885 49.6507 54.975 49.1233 54.975C48.5959 54.975 48.4151 54.885 48.0384 54.465C47.6466 54.03 47.5863 53.88 47.6616 53.34C47.8123 52.29 48.9425 51.705 49.8918 52.2Z" fill="#E90ADE"/>
</svg>
