<svg width="65" height="36" viewBox="0 0 65 36" fill="none" xmlns="http://www.w3.org/2000/svg">
<path d="M4.27792 26.8466C3.20979 27.7621 2.47599 29.0483 2.25795 30.5089H1.39332C0.993632 30.5089 0.666626 30.1818 0.666626 29.7822V27.5732C0.666626 27.1735 0.993528 26.8467 1.39332 26.8467L4.27792 26.8466ZM12.6048 30.5087C12.663 30.792 12.692 31.0753 12.692 31.3734C12.692 33.8656 10.6721 35.8928 8.17251 35.8928C5.68027 35.8928 3.65298 33.8656 3.65298 31.3734C3.65298 31.0753 3.68195 30.792 3.74009 30.5087C4.13967 28.4232 5.97078 26.8465 8.1724 26.8465C10.374 26.8465 12.2125 28.4232 12.6048 30.5087ZM10.4323 31.3734C10.4323 31.0682 10.3742 30.7702 10.2579 30.5087C9.92372 29.6876 9.11714 29.1135 8.17261 29.1135C7.22799 29.1135 6.4215 29.6876 6.08717 30.5087C5.97089 30.7702 5.91285 31.0682 5.91285 31.3734C5.91285 32.6158 6.92284 33.6331 8.17261 33.6331C9.42239 33.6331 10.4323 32.6158 10.4323 31.3734ZM2.45549 23.9475V2.28705C2.45549 1.08318 3.43149 0.107178 4.63536 0.107178H39.3674C40.5714 0.107178 41.5473 1.08318 41.5473 2.28705V23.9475C41.5473 24.347 41.2204 24.674 40.8207 24.674H3.18218C2.7825 24.674 2.45549 24.347 2.45549 23.9475ZM36.272 21.502C36.272 21.847 36.5516 22.1266 36.8966 22.1266H36.916C37.2609 22.1266 37.5406 21.847 37.5406 21.502V3.5294C37.5406 3.18451 37.2609 2.90488 36.916 2.90488H36.8966C36.5516 2.90488 36.272 3.18451 36.272 3.5294V21.502ZM30.3988 21.502C30.3988 21.847 30.6783 22.1266 31.0232 22.1266H31.0427C31.3877 22.1266 31.6672 21.847 31.6672 21.502V3.5294C31.6672 3.18451 31.3877 2.90488 31.0427 2.90488H31.0232C30.6783 2.90488 30.3988 3.18451 30.3988 3.5294V21.502ZM24.5256 21.502C24.5256 21.847 24.8052 22.1266 25.1501 22.1266H25.1695C25.5144 22.1266 25.7941 21.847 25.7941 21.502V3.5294C25.7941 3.18451 25.5144 2.90488 25.1695 2.90488H25.1501C24.8052 2.90488 24.5256 3.18451 24.5256 3.5294V21.502ZM18.6525 21.502C18.6525 21.847 18.9321 22.1266 19.277 22.1266H19.2965C19.6414 22.1266 19.921 21.847 19.921 21.502V3.5294C19.921 3.18451 19.6414 2.90488 19.2965 2.90488H19.277C18.9321 2.90488 18.6525 3.18451 18.6525 3.5294V21.502ZM12.7794 21.502C12.7794 21.847 13.0589 22.1266 13.4039 22.1266H13.4233C13.7682 22.1266 14.0478 21.847 14.0478 21.502V3.5294C14.0478 3.18451 13.7682 2.90488 13.4233 2.90488H13.4039C13.0589 2.90488 12.7794 3.18451 12.7794 3.5294V21.502ZM6.90621 21.502C6.90621 21.847 7.18584 22.1266 7.53073 22.1266H7.55018C7.89517 22.1266 8.1747 21.847 8.1747 21.502V3.5294C8.1747 3.18451 7.89517 2.90488 7.55018 2.90488H7.53073C7.18584 2.90488 6.90621 3.18451 6.90621 3.5294V21.502ZM23.7584 30.5087C23.8165 30.792 23.8456 31.0753 23.8456 31.3734C23.8456 33.8656 21.8256 35.8928 19.3261 35.8928C16.8337 35.8928 14.8065 33.8656 14.8065 31.3734C14.8065 31.0753 14.8356 30.792 14.8937 30.5087C15.2933 28.4232 17.1245 26.8465 19.3261 26.8465C21.5277 26.8465 23.366 28.4232 23.7584 30.5087ZM21.5858 31.3734C21.5858 31.0682 21.5277 30.7702 21.4187 30.5087C21.0772 29.6876 20.2706 29.1135 19.3261 29.1135C18.3816 29.1135 17.5749 29.6876 17.2334 30.5087C17.1245 30.7702 17.0663 31.0682 17.0663 31.3734C17.0663 32.6158 18.0763 33.6331 19.3262 33.6331C20.5759 33.6331 21.5858 32.6158 21.5858 31.3734ZM15.4314 26.8466H12.0673C12.8084 27.4859 13.397 28.307 13.7531 29.2371C14.1017 28.3071 14.6903 27.4859 15.4314 26.8466ZM64.6666 27.5731V29.7821C64.6666 30.1817 64.3396 30.5087 63.94 30.5087H58.0545C57.6331 27.6239 55.1553 25.3933 52.1544 25.3933C49.1535 25.3933 46.6685 27.6239 46.2471 30.5087H25.2406C25.0227 29.0481 24.2888 27.762 23.2207 26.8465H43.624V6.06545C43.624 5.26608 44.2706 4.61217 45.0772 4.61217H51.9365C53.8692 4.61217 55.6713 5.57133 56.7537 7.16987L61.1788 13.7239C61.8255 14.6831 62.1743 15.8166 62.1743 16.9718V26.8465H63.9399C64.3396 26.8466 64.6666 27.1734 64.6666 27.5731ZM57.2988 13.891L53.7602 8.86284C53.6221 8.67398 53.4042 8.55769 53.1644 8.55769H47.6495C47.2499 8.55769 46.9228 8.88459 46.9228 9.28438V14.3052C46.9228 14.7121 47.2499 15.0318 47.6495 15.0318H56.703C57.2917 15.0318 57.633 14.3706 57.2988 13.891ZM56.6738 31.3734C56.6738 33.8656 54.6467 35.8928 52.1543 35.8928C49.6548 35.8928 47.6348 33.8656 47.6348 31.3734C47.6348 28.8738 49.6548 26.8466 52.1543 26.8466C54.6468 26.8466 56.6738 28.8737 56.6738 31.3734ZM54.4142 31.3734C54.4142 30.1236 53.4042 29.1136 52.1544 29.1136C50.9046 29.1136 49.8947 30.1236 49.8947 31.3734C49.8947 32.6158 50.9046 33.6331 52.1544 33.6331C53.4042 33.6331 54.4142 32.6158 54.4142 31.3734Z" fill="#E90ADE"/>
</svg>
