<svg width="63" height="54" viewBox="0 0 63 54" fill="none" xmlns="http://www.w3.org/2000/svg">
<path d="M22.3587 17.8861C22.15 17.0511 21.315 16.4248 20.3756 16.4248H12.8606C11.7125 16.4248 10.7731 17.3642 10.7731 18.5124V23.7312C10.7731 24.8793 11.7125 25.8187 12.8606 25.8187H21.9413C22.5675 25.8187 23.1938 25.5056 23.5069 24.9837C23.9244 24.3574 24.0288 23.7312 23.82 23.1049L22.3587 17.8861ZM12.8606 23.7312V18.5124H20.3756L21.9413 23.7312H12.8606Z" fill="#E90ADE"/>
<path d="M14.9483 47.7374C14.322 47.7374 13.9045 48.1549 13.9045 48.7811C13.9045 49.4074 14.322 49.8249 14.9483 49.8249C15.5745 49.8249 15.992 49.4074 15.992 48.7811C15.992 48.1549 15.5745 47.7374 14.9483 47.7374Z" fill="#E90ADE"/>
<path d="M20.1669 47.7374C19.5406 47.7374 19.1232 48.1549 19.1232 48.7811C19.1232 49.4074 19.5406 49.8249 20.1669 49.8249C20.7931 49.8249 21.2106 49.4074 21.2106 48.7811C21.2106 48.1549 20.7931 47.7374 20.1669 47.7374Z" fill="#E90ADE"/>
<path d="M25.3858 47.7374C24.7595 47.7374 24.342 48.1549 24.342 48.7811C24.342 49.4074 24.7595 49.8249 25.3858 49.8249C26.012 49.8249 26.4295 49.4074 26.4295 48.7811C26.4295 48.1549 26.012 47.7374 25.3858 47.7374Z" fill="#E90ADE"/>
<path d="M30.6045 47.7374C29.9783 47.7374 29.5608 48.1549 29.5608 48.7811C29.5608 49.4074 29.9783 49.8249 30.6045 49.8249C31.2308 49.8249 31.6482 49.4074 31.6482 48.7811C31.6482 48.1549 31.2308 47.7374 30.6045 47.7374Z" fill="#E90ADE"/>
<path d="M35.8233 47.7374C35.197 47.7374 34.7795 48.1549 34.7795 48.7811C34.7795 49.4074 35.197 49.8249 35.8233 49.8249C36.4495 49.8249 36.867 49.4074 36.867 48.7811C36.867 48.1549 36.4495 47.7374 35.8233 47.7374Z" fill="#E90ADE"/>
<path d="M45.217 43.5624H43.8049L47.3046 33.6467C47.722 32.9161 47.6177 31.9767 47.2002 31.246C46.6783 30.4109 45.9477 29.9935 45.0083 29.9935H35.1285L55.6546 8.64269V19.6453C52.7027 20.1462 50.4358 22.7297 50.4358 25.8185C50.4358 27.1754 50.8533 28.5323 51.6883 29.576C52.0015 29.9935 52.732 30.0979 53.1496 29.7848C53.5672 29.4717 53.6715 28.7411 53.3584 28.3235C52.8365 27.5929 52.5234 26.7579 52.5234 25.8185C52.5234 23.5223 54.4021 21.6435 56.6983 21.6435C58.9946 21.6435 60.8733 23.5223 60.8733 25.8185C60.8733 26.7579 60.5602 27.5929 60.0383 28.3235C59.7252 28.741 59.8295 29.4717 60.2471 29.7848C60.4559 29.8892 60.6645 29.9936 60.8733 29.9936C61.1865 29.9936 61.4996 29.8893 61.7084 29.5761C62.5434 28.5324 62.9609 27.1755 62.9609 25.8186C62.9609 22.7298 60.694 20.1463 57.7421 19.6454V5.98723C57.7421 5.9476 57.7404 5.90882 57.737 5.87078C57.9264 5.31694 58.0022 4.72543 57.9509 4.10847C57.8465 2.85597 57.2203 1.7078 56.2809 0.977209C54.5065 -0.484087 51.8971 -0.275296 50.3315 1.39467L30.0978 22.8071L27.9952 13.3979C27.5777 11.5192 25.9076 10.1623 23.9246 10.1623H21.2108V8.07478C21.2108 5.77856 19.332 3.8998 17.0358 3.8998C14.7396 3.8998 12.8608 5.77856 12.8608 8.07478V10.1623H9.72942C7.4332 10.1623 5.55444 12.0411 5.55444 14.3373V29.9936V32.0812V43.5625C2.63185 43.5624 0.335632 45.8586 0.335632 48.7812C0.335632 51.7038 2.63185 54 5.55444 54H45.2171C48.1396 54 50.436 51.7038 50.436 48.7812C50.436 45.8586 48.1396 43.5624 45.217 43.5624ZM41.0172 51.9124H9.75425C10.3964 51.0452 10.7731 49.9647 10.7731 48.7812C10.7731 47.5977 10.3964 46.5171 9.75425 45.6499H41.0172C40.3751 46.5171 39.9983 47.5977 39.9983 48.7812C39.9983 49.9647 40.3751 51.0452 41.0172 51.9124ZM51.8971 2.9603C52.7322 2.12526 54.089 2.02092 55.0284 2.75151C55.5503 3.06464 55.8634 3.69089 55.8634 4.31714C55.8634 4.94339 55.6546 5.56964 55.2372 5.98711L32.2745 29.9936H31.7526L31.005 26.8672L30.6258 25.1701L51.8971 2.9603ZM14.9482 8.07478C14.9482 6.92661 15.8876 5.98723 17.0358 5.98723C18.1839 5.98723 19.1233 6.92661 19.1233 8.07478V10.1623H14.9484L14.9482 8.07478ZM7.64187 14.3373C7.64187 13.1891 8.58125 12.2498 9.72942 12.2498H12.8607H21.2108H23.8201C24.8638 12.2498 25.6989 12.9803 25.9076 13.9197L29.5608 29.9935H7.64199L7.64187 14.3373ZM7.64187 40.4311H30.6044C31.2307 40.4311 31.6481 40.0137 31.6481 39.3874C31.6481 38.7611 31.2307 38.3437 30.6044 38.3437H7.64187V36.2561H24.3419C24.9681 36.2561 25.3856 35.8387 25.3856 35.2124C25.3856 34.5862 24.9681 34.1687 24.3419 34.1687H7.64187V32.1856H45.0082C45.217 32.1856 45.4257 32.29 45.4257 32.3944C45.4257 32.3944 45.53 32.6032 45.4257 32.8119L41.6682 43.3538C41.5638 43.4582 41.4594 43.5626 41.2507 43.5626H7.64187V40.4311ZM2.42318 48.7812C2.42318 47.0068 3.78002 45.6499 5.55444 45.6499C7.32887 45.6499 8.68571 47.0068 8.68571 48.7812C8.68571 50.5556 7.32887 51.9124 5.55444 51.9124C3.78002 51.9124 2.42318 50.5555 2.42318 48.7812ZM45.217 51.9124C43.4426 51.9124 42.0858 50.5556 42.0858 48.7812C42.0858 47.0068 43.4426 45.6499 45.217 45.6499C46.9914 45.6499 48.3483 47.0068 48.3483 48.7812C48.3483 50.5556 46.9914 51.9124 45.217 51.9124Z" fill="#E90ADE"/>
<path d="M62.9609 37.1955L61.9172 33.0205C61.9172 32.7074 61.7084 32.3942 61.3953 32.2899L57.2203 30.2024C56.8028 29.9936 56.2809 30.098 55.9678 30.4112L51.7928 34.5861C51.4797 34.7949 51.3753 35.2124 51.4797 35.5255L52.5234 39.7005C52.6277 40.0136 52.9408 40.3267 53.3584 40.4311L58.5772 41.4748C58.6816 41.4748 58.6816 41.4748 58.786 41.4748C59.0992 41.4748 59.308 41.3704 59.5166 41.266L62.6479 38.1347C62.9609 37.9261 63.0652 37.5086 62.9609 37.1955ZM58.4728 39.2829L54.4021 38.4479L53.6716 35.5254L56.9072 32.2898L59.9341 33.8554L60.7691 36.9867L58.4728 39.2829Z" fill="#E90ADE"/>
</svg>
