<svg width="24" height="28" viewBox="0 0 24 28" fill="none" xmlns="http://www.w3.org/2000/svg">
<path d="M22.5 11.6667C22.5 19.8333 12 26.8333 12 26.8333C12 26.8333 1.5 19.8333 1.5 11.6667C1.5 8.88188 2.60625 6.21117 4.57538 4.24204C6.54451 2.2729 9.21523 1.16666 12 1.16666C14.7848 1.16666 17.4555 2.2729 19.4246 4.24204C21.3938 6.21117 22.5 8.88188 22.5 11.6667Z" stroke="#E90ADE" stroke-width="2" stroke-linecap="round" stroke-linejoin="round"/>
<path d="M12 15.1667C13.933 15.1667 15.5 13.5997 15.5 11.6667C15.5 9.73366 13.933 8.16666 12 8.16666C10.067 8.16666 8.5 9.73366 8.5 11.6667C8.5 13.5997 10.067 15.1667 12 15.1667Z" stroke="#E90ADE" stroke-width="2" stroke-linecap="round" stroke-linejoin="round"/>
</svg>
