<svg width="73" height="52" viewBox="0 0 73 52" fill="none" xmlns="http://www.w3.org/2000/svg">
<path d="M15.8651 0.161949C14.375 0.371086 13.4339 0.972351 12.8326 2.09646C12.4143 2.85457 12.362 3.90025 12.2836 11.9781L12.2052 21.0232L9.14657 21.1801C7.47348 21.2324 5.77425 21.4154 5.40827 21.5722C4.25802 22.0166 3.10777 23.4022 2.6895 24.84C1.90524 27.5065 0.885704 33.0224 0.885704 34.8262C0.859562 36.447 0.937988 36.7869 1.5654 37.545L2.24509 38.4338L1.3824 39.767C0.885704 40.499 0.362865 41.6754 0.179871 42.3551C-0.421394 44.8124 0.519717 47.8188 2.48036 49.6226C4.67629 51.6616 3.83975 51.5571 19.8125 51.5571H34.0599L35.3931 50.8512C36.9093 50.0408 38.2164 48.6553 38.9223 47.1391C39.6804 45.4921 39.602 42.4597 38.7916 40.8389L38.138 39.5841L39.5758 37.9894C40.3601 37.1267 42.3992 34.5387 44.0722 32.2643C45.7453 29.9638 48.0197 26.9575 49.1176 25.572L51.1306 23.01L52.9082 22.8532C55.1826 22.6179 58.3458 22.6441 59.6006 22.8793L60.5678 23.0623L58.8947 27.062C57.9798 29.2841 57.1955 31.1402 57.1171 31.1925C57.0387 31.2709 56.6204 31.1402 56.176 30.9311C54.9996 30.3037 54.1369 30.4082 53.6402 31.1925C53.2219 31.8199 53.2219 31.8983 53.7186 32.5519C54.4768 33.5975 57.9014 35.1922 59.862 35.4275C66.2145 36.1595 71.3383 32.578 72.7761 26.4085C73.848 21.8075 70.9462 15.9256 66.7373 14.2002C64.463 13.2329 49.8758 10.7756 47.706 10.9847C47.0001 11.037 46.242 11.2984 45.9283 11.586C45.6146 11.8474 43.6801 13.9649 41.641 16.2654C38.321 20.0299 36.7786 21.4154 36.4126 21.0755C36.3604 20.9971 35.8898 18.0692 35.3931 14.5662C33.6677 2.64544 33.4586 1.88732 31.7332 0.606365C31.0797 0.109665 30.6353 0.0573807 24.0475 0.00510025C20.2046 -0.0210419 16.5186 0.0573807 15.8651 0.161949ZM30.2431 3.4297C30.4 3.61269 30.7137 4.68451 30.9228 5.78247C31.2888 7.69084 33.1449 20.2651 33.1449 20.8141C33.1449 20.9971 31.8117 21.1017 29.2497 21.1017H25.3546L24.1521 17.4941C22.7665 13.3375 22.1653 12.2134 21.3287 12.2134C20.6752 12.2134 19.8125 12.9192 19.8125 13.4421C19.8125 13.7296 21.5901 19.4809 22.0868 20.7618C22.1914 21.0232 21.4072 21.1017 18.6622 21.1017H15.1069L15.1331 13.5728C15.1331 5.78247 15.2899 3.69112 15.9173 3.29899C16.1265 3.16828 19.3681 3.06371 23.1064 3.06371C28.6223 3.06371 30.0079 3.14214 30.2431 3.4297ZM58.0321 15.4289C60.7247 15.8994 62.999 16.37 63.1036 16.4484C63.182 16.553 62.9206 17.3372 62.5285 18.1999L61.8227 19.7946L56.5681 19.7423L51.3136 19.6639L50.477 17.1804C50.0326 15.821 49.6405 14.5923 49.6405 14.4616C49.6143 14.1218 52.49 14.4616 58.0321 15.4289ZM47.9674 19.3502L48.3857 21.2585L46.1113 24.3694C44.8565 26.0948 42.922 28.7351 41.824 30.2514L39.8111 32.9963L39.7327 28.0816L39.6804 23.1407L41.3273 21.2847C42.2162 20.239 43.7847 18.4613 44.7781 17.3372L46.608 15.272L47.0786 16.37C47.34 16.9712 47.7321 18.3306 47.9674 19.3502ZM67.7307 18.7489C72.3317 23.8466 68.8026 32.2643 62.0318 32.4212C61.1168 32.4473 60.3064 32.395 60.228 32.3166C60.1496 32.2382 61.326 29.1795 62.8422 25.5197C64.3584 21.8598 65.7178 18.5659 65.8747 18.1476C66.0054 17.7555 66.2406 17.4418 66.3452 17.4418C66.4759 17.4418 67.0772 18.0431 67.7307 18.7489ZM36.5434 30.4082V36.5777L20.8059 36.4732C8.85901 36.3947 4.91157 36.2902 4.46715 36.0549C3.9966 35.7935 3.86589 35.4798 3.86589 34.7216C3.86589 33.3623 5.1207 27.2973 5.74811 25.5981L6.24481 24.2387H21.4072H36.5434V30.4082ZM34.8441 40.7866C36.9616 42.8779 36.9878 45.5967 34.9226 47.3482C34.3736 47.8449 33.537 48.2893 33.0926 48.3939C31.6548 48.6815 6.84607 48.5769 6.03567 48.2632C4.41487 47.6619 3.08163 45.832 3.08163 44.2373C3.08163 42.3812 4.807 40.0285 6.29709 39.8455C6.76765 39.7932 13.1201 39.7148 20.4399 39.7148L33.7462 39.6625L34.8441 40.7866Z" fill="#E90ADE"/>
</svg>
