<svg width="65" height="64" viewBox="0 0 65 64" fill="none" xmlns="http://www.w3.org/2000/svg">
<path d="M64.0296 15.7853L59.6062 11.362C59.4119 11.1675 59.1481 11.0583 58.8732 11.0583H56.8075L18.8161 0.144449C18.8038 0.140855 18.7914 0.13892 18.7791 0.135741C18.5198 0.047689 18.2422 0 17.9541 0C17.3906 0 16.8656 0.1826 16.4416 0.500389C16.4114 0.521538 16.3818 0.544207 16.3532 0.569089L16.3102 0.606549C16.3008 0.614566 16.2915 0.622583 16.2822 0.630877L4.29959 11.0583H1.36997C0.797425 11.0583 0.333252 11.5225 0.333252 12.095V20.9417C0.333252 21.5142 0.797425 21.9784 1.36997 21.9784H8.00496C8.5775 21.9784 9.04167 21.5142 9.04167 20.9417V17.5551H12.4974V57.5032H11.3225C10.7499 57.5032 10.2857 57.9674 10.2857 58.54V62.9633C10.2857 63.5358 10.7499 64 11.3225 64H24.5924C25.165 64 25.6291 63.5358 25.6291 62.9633V58.54C25.6291 57.9674 25.165 57.5032 24.5924 57.5032H23.4175V28.6134H27.2026C28.7457 28.6134 30.0852 27.5152 30.3878 26.002L32.0774 17.5551H53.4132V20.9417C53.4132 22.3704 54.3407 23.5857 55.6248 24.0195V31.6365L51.4288 36.8817C51.2817 37.0655 51.2015 37.2939 51.2015 37.5293V46.3759C51.2015 46.9485 51.6657 47.4127 52.2382 47.4127H61.0849C61.6574 47.4127 62.1216 46.9485 62.1216 46.3759V37.5293C62.1216 37.2939 62.0414 37.0655 61.8943 36.8817L57.6983 31.6363V24.0194C58.9824 23.5856 59.9099 22.3703 59.9099 20.9415V17.5551H63.2965C63.7159 17.5551 64.0938 17.3025 64.2543 16.9151C64.4148 16.5276 64.3261 16.0818 64.0296 15.7853ZM17.9608 2.07343C18.1558 2.07343 18.3311 2.20392 18.3871 2.39067L20.9874 11.0583H14.9275L17.5277 2.39067C17.5838 2.20392 17.7591 2.07343 17.9608 2.07343ZM23.1521 11.0583L20.6862 2.83895L49.298 11.0583H23.1521ZM14.6369 4.8112L12.7628 11.0583H8.00496H7.45799L14.6369 4.8112ZM6.96824 19.905H2.40669V13.1317H6.96824V19.905ZM14.5708 19.0752L16.7402 22.6004L14.5708 26.1257V19.0752ZM17.9574 38.9543L20.5256 43.1274H15.3894L17.9574 38.9543ZM14.5708 40.5015V33.4511L16.7402 36.9764L14.5708 40.5015ZM19.1747 36.9762L21.3441 33.451V40.5014L19.1747 36.9762ZM17.9574 34.9982L15.3893 30.8251H20.5255L17.9574 34.9982ZM20.5256 45.2009L17.9574 49.374L15.3893 45.2009H20.5256ZM21.3441 26.1257L19.1747 22.6004L21.3441 19.0752V26.1257ZM20.5256 28.7516H15.3894L17.9576 24.5785L20.5256 28.7516ZM16.7402 51.3521L14.5708 54.8773V47.8269L16.7402 51.3521ZM17.9574 53.3301L20.5256 57.5032H15.3894L17.9574 53.3301ZM19.1747 51.3521L21.3441 47.8268V54.8772L19.1747 51.3521ZM17.9574 20.6224L16.0699 17.5551H19.8451L17.9574 20.6224ZM23.5557 61.9266H12.3592V59.5767H23.5557V61.9266ZM27.2026 26.54H23.4175V20.8726H29.2993L28.3547 25.5954C28.2453 26.1428 27.7608 26.54 27.2026 26.54ZM29.714 18.7991H23.4175V17.5551H29.9628L29.714 18.7991ZM56.6615 33.6596L58.9278 36.4924H54.3951L56.6615 33.6596ZM53.2749 45.3391V38.5659H60.0482V45.3391H53.2749ZM57.8365 20.9417C57.8365 21.5896 57.3094 22.1166 56.6615 22.1166C56.0137 22.1166 55.4866 21.5896 55.4866 20.9417V17.5551H57.8365V20.9417ZM9.04167 15.4816V13.1317H58.4439L60.7938 15.4816H9.04167Z" fill="#E90ADE"/>
</svg>
