<svg width="65" height="64" viewBox="0 0 65 64" fill="none" xmlns="http://www.w3.org/2000/svg">
<g clip-path="url(#clip0_1_474)">
<path d="M4.73822 56.4295C4.73822 58.0782 6.07955 59.4196 7.72828 59.4196C9.37701 59.4196 10.7183 58.0782 10.7183 56.4295C10.7183 55.3659 10.1462 54.374 9.22522 53.8408C8.772 53.5783 8.25428 53.4395 7.72828 53.4395C6.07955 53.4395 4.73822 54.7808 4.73822 56.4295ZM8.80979 56.4295C8.80979 57.0259 8.32464 57.511 7.72828 57.511C7.13192 57.511 6.64677 57.0259 6.64677 56.4295C6.64677 55.8332 7.13192 55.348 7.72828 55.348C7.91888 55.348 8.10566 55.3979 8.26878 55.4924C8.60252 55.6856 8.80979 56.0447 8.80979 56.4295Z" fill="#E90ADE"/>
<path d="M15.8714 59.4196C17.5201 59.4196 18.8615 58.0782 18.8615 56.4295C18.8615 55.3659 18.2893 54.374 17.3683 53.8408C16.915 53.5783 16.3974 53.4395 15.8714 53.4395C14.2227 53.4395 12.8813 54.7808 12.8813 56.4295C12.8813 58.0782 14.2227 59.4196 15.8714 59.4196ZM15.8714 55.348C16.062 55.348 16.2488 55.3979 16.4119 55.4924C16.7456 55.6857 16.9529 56.0447 16.9529 56.4295C16.9529 57.0259 16.4678 57.511 15.8714 57.511C15.275 57.511 14.7899 57.0259 14.7899 56.4295C14.7899 55.8332 15.275 55.348 15.8714 55.348Z" fill="#E90ADE"/>
<path d="M24.0146 59.4196C25.6633 59.4196 27.0047 58.0782 27.0047 56.4295C27.0047 55.3659 26.4325 54.374 25.5115 53.8408C25.0582 53.5783 24.5406 53.4395 24.0146 53.4395C22.3659 53.4395 21.0245 54.7808 21.0245 56.4295C21.0245 58.0782 22.3659 59.4196 24.0146 59.4196ZM24.0146 55.348C24.2052 55.348 24.392 55.3979 24.5551 55.4924C24.8888 55.6857 25.0961 56.0447 25.0961 56.4295C25.0961 57.0259 24.611 57.511 24.0146 57.511C23.4182 57.511 22.9331 57.0259 22.9331 56.4295C22.9331 55.8332 23.4182 55.348 24.0146 55.348Z" fill="#E90ADE"/>
<path d="M32.1577 59.4196C33.8064 59.4196 35.1477 58.0782 35.1477 56.4295C35.1477 55.3659 34.5755 54.374 33.6546 53.8408C33.2013 53.5783 32.6837 53.4395 32.1577 53.4395C30.5089 53.4395 29.1676 54.7808 29.1676 56.4295C29.1676 58.0782 30.5089 59.4196 32.1577 59.4196ZM32.1577 55.348C32.3483 55.348 32.535 55.3979 32.6982 55.4924C33.0319 55.6857 33.2392 56.0447 33.2392 56.4295C33.2392 57.0259 32.754 57.511 32.1577 57.511C31.5613 57.511 31.0762 57.0259 31.0762 56.4295C31.0762 55.8332 31.5613 55.348 32.1577 55.348Z" fill="#E90ADE"/>
<path d="M8.74614 40.0796H9.76404C10.2911 40.0796 10.7183 39.6523 10.7183 39.1253C10.7183 38.5983 10.2911 38.171 9.76404 38.171H8.74614C8.21913 38.171 7.79187 38.5983 7.79187 39.1253C7.79187 39.6523 8.21913 40.0796 8.74614 40.0796Z" fill="#E90ADE"/>
<path d="M8.74614 43.1333H9.76404C10.2911 43.1333 10.7183 42.706 10.7183 42.179C10.7183 41.652 10.2911 41.2247 9.76404 41.2247H8.74614C8.21913 41.2247 7.79187 41.652 7.79187 42.179C7.79187 42.706 8.21913 43.1333 8.74614 43.1333Z" fill="#E90ADE"/>
<path d="M64.2618 33.5542L48.0349 2.89211C47.4103 1.48971 46.0041 0.508972 44.3724 0.508972C43.0059 0.508972 41.7974 1.19694 41.0737 2.24422C41.072 2.24639 41.0702 2.24817 41.0686 2.25033L25.5411 22.9455C25.3266 22.9176 25.109 22.9026 24.8892 22.9026H17.9072C15.136 22.9026 12.8813 25.1572 12.8813 27.9285V34.0994H6.71036C5.06163 34.0994 3.7203 35.4408 3.7203 37.0895V44.2147C3.7203 45.8635 5.06163 47.2048 6.71036 47.2048H13.8356H14.9171V49.3678H7.72826C3.83443 49.3678 0.666626 52.5356 0.666626 56.4294C0.666626 60.3233 3.83443 63.4911 7.72826 63.4911H32.1577C36.0515 63.4911 39.2193 60.3233 39.2193 56.4294C39.2193 52.5356 36.0515 49.3678 32.1577 49.3678H24.9688V47.2048H33.1756C33.7026 47.2048 34.1298 46.7775 34.1298 46.2505V43.1334L35.2115 43.1332C35.2243 43.1332 35.2368 43.1318 35.2495 43.1313C35.2694 43.1306 35.2894 43.1303 35.3089 43.1283C35.319 43.1272 35.3285 43.1251 35.3385 43.1238C35.3602 43.1209 35.3822 43.1182 35.4035 43.1139C35.4208 43.1103 35.4376 43.1052 35.4545 43.1008C35.468 43.0972 35.4817 43.0944 35.495 43.0903C35.5054 43.087 35.5153 43.0827 35.5256 43.0792C35.5448 43.0725 35.5641 43.0662 35.5826 43.0583C35.5848 43.0574 35.5868 43.0561 35.5891 43.0552C35.6438 43.0316 35.696 43.0033 35.7447 42.9704C35.7569 42.9621 35.7684 42.9527 35.7802 42.9439C35.793 42.9345 35.8061 42.9256 35.8183 42.9155C35.8313 42.9048 35.8432 42.893 35.8556 42.8817C35.8657 42.8724 35.8763 42.8636 35.8861 42.8539C35.895 42.845 35.9029 42.8354 35.9114 42.8261C35.9236 42.8128 35.9362 42.8 35.9477 42.7861C35.9519 42.781 35.9554 42.7754 35.9595 42.7702C35.9744 42.7514 35.9892 42.7326 36.0025 42.7126C36.0086 42.7035 36.0137 42.6939 36.0196 42.6846C36.0301 42.6679 36.0408 42.6514 36.0504 42.6339C36.1038 42.5356 36.1394 42.4263 36.1555 42.3108C36.1614 42.2676 36.1656 42.2239 36.1656 42.1791V38.5371C36.1656 36.735 35.6373 34.9901 34.6376 33.4906L33.1253 31.2222L43.6091 13.6212L59.0932 36.5564C59.4548 37.1758 60.0324 37.6537 60.7223 37.8867V39.4624L60.4439 38.7696C60.3495 38.5348 60.1658 38.3471 59.933 38.2477C59.7002 38.1482 59.4375 38.1455 59.2027 38.2398L46.1615 43.4788L43.9147 41.6265C43.5081 41.2912 42.9066 41.3491 42.5714 41.7558C42.2361 42.1624 42.294 42.7639 42.7006 43.0991L49.7442 48.9059C51.0311 49.9668 52.6236 50.5194 54.236 50.5194C55.1234 50.5194 56.017 50.352 56.8687 50.0098L60.1161 48.7053C61.5162 48.1428 62.4251 46.8741 62.599 45.4731C62.619 45.3961 62.6308 45.3158 62.6308 45.2326V37.8867C63.8129 37.4875 64.6666 36.3688 64.6666 35.0537C64.6666 34.5075 64.5186 33.9953 64.2618 33.5542ZM12.8813 45.2962H6.71036C6.11401 45.2962 5.62885 44.8111 5.62885 44.2147V37.0895C5.62885 36.4931 6.11401 36.008 6.71036 36.008H12.8813V45.2962ZM59.4046 46.9343L56.1572 48.2388C54.4064 48.9423 52.4142 48.6337 50.9583 47.4332L47.839 44.8616L59.0286 40.3665L60.5701 44.2035C61.0017 45.2778 60.4788 46.5028 59.4046 46.9343ZM44.3724 2.41752C45.1578 2.41752 45.8429 2.85178 46.2028 3.49203C46.2171 3.52982 46.2328 3.56723 46.2522 3.60387L46.3136 3.72004C46.415 3.96599 46.4718 4.23484 46.4718 4.51692C46.4718 4.91365 46.3592 5.28365 46.1672 5.60047C46.1611 5.60989 46.1545 5.61867 46.1486 5.62834L46.1087 5.69539C45.7305 6.25078 45.0934 6.61633 44.3724 6.61633C43.2148 6.61633 42.273 5.67452 42.273 4.51692C42.273 3.35933 43.2148 2.41752 44.3724 2.41752ZM32.1577 51.2764C34.9991 51.2764 37.3108 53.588 37.3108 56.4294C37.3108 59.2709 34.9991 61.5825 32.1577 61.5825H7.72826C4.88681 61.5825 2.57517 59.2709 2.57517 56.4294C2.57517 53.588 4.88681 51.2764 7.72826 51.2764H32.1577ZM16.8257 49.3678V47.2048H23.0603V49.3678H16.8257ZM32.2213 45.2962H14.7899V35.0587C14.7899 35.057 14.7901 35.0555 14.7901 35.0537C14.7901 35.0519 14.7899 35.0504 14.7899 35.0487V27.9285C14.7899 26.5423 15.6995 25.3651 16.9529 24.9612V38.6682C16.9529 39.8037 17.6233 40.8353 18.6608 41.2964C21.403 42.5152 24.3148 43.1332 27.3157 43.1332H32.2213V45.2962ZM34.2571 38.5369V41.2247H27.3157C26.1782 41.2247 25.0551 41.1257 23.9509 40.9318V27.9285C23.9509 27.4014 23.5237 26.9742 22.9966 26.9742C22.4696 26.9742 22.0424 27.4014 22.0424 27.9285V40.4948C21.1577 40.2443 20.2877 39.9309 19.4361 39.5524C19.087 39.3973 18.8615 39.0502 18.8615 38.6682V24.8112H24.8893C25.9339 24.8112 26.9036 25.3302 27.483 26.1993L33.0497 34.5492C33.8396 35.734 34.2571 37.113 34.2571 38.5369ZM31.9522 29.4624L29.0709 25.1406C28.6428 24.4983 28.0814 23.9764 27.4378 23.5976L40.647 5.99223C41.2359 7.47403 42.6833 8.52488 44.3724 8.52488C44.3897 8.52488 44.4069 8.52373 44.424 8.5236L31.9522 29.4624ZM59.2264 33.3429L44.6886 11.8091L47.7401 6.68605C47.7666 6.64508 47.7926 6.60386 47.8177 6.56187L61.325 32.0851C60.4581 32.1871 59.704 32.661 59.2264 33.3429ZM61.6766 36.1352C61.0802 36.1352 60.5951 35.6501 60.5951 35.0537C60.5951 34.4573 61.0802 33.9722 61.6766 33.9722C62.2729 33.9722 62.7581 34.4573 62.7581 35.0537C62.7581 35.6501 62.2729 36.1352 61.6766 36.1352Z" fill="#E90ADE"/>
</g>
<defs>
<clipPath id="clip0_1_474">
<rect width="64" height="64" fill="white" transform="translate(0.666626)"/>
</clipPath>
</defs>
</svg>
