<svg width="55" height="55" viewBox="0 0 55 55" fill="none" xmlns="http://www.w3.org/2000/svg">
<path d="M33.1983 13.7999C32.7097 14.2984 32.436 14.9686 32.436 15.6666C32.436 16.3646 32.7097 17.0348 33.1983 17.5333L37.465 21.7999C37.9635 22.2885 38.6337 22.5622 39.3317 22.5622C40.0297 22.5622 40.6999 22.2885 41.1983 21.7999L51.2517 11.7466C52.5926 14.7098 52.9986 18.0112 52.4156 21.211C51.8325 24.4107 50.2882 27.3568 47.9884 29.6567C45.6886 31.9565 42.7425 33.5008 39.5427 34.0838C36.343 34.6668 33.0415 34.2608 30.0783 32.9199L11.6517 51.3466C10.5908 52.4075 9.15196 53.0034 7.65167 53.0034C6.15138 53.0034 4.71253 52.4075 3.65167 51.3466C2.5908 50.2857 1.99481 48.8469 1.99481 47.3466C1.99481 45.8463 2.5908 44.4075 3.65167 43.3466L22.0783 24.9199C20.7374 21.9568 20.3314 18.6553 20.9144 15.4555C21.4975 12.2558 23.0418 9.30967 25.3416 7.00985C27.6414 4.71003 30.5875 3.16571 33.7873 2.58271C36.987 1.9997 40.2885 2.4057 43.2517 3.74659L33.225 13.7733L33.1983 13.7999Z" stroke="#E90ADE" stroke-width="3" stroke-linecap="round" stroke-linejoin="round"/>
</svg>
